<svg width="27" height="33" viewBox="0 0 27 33" fill="none" xmlns="http://www.w3.org/2000/svg">
    <path fill-rule="evenodd" clip-rule="evenodd"
        d="M0.5 19.625C0.5 26.775 6.35 32.625 13.5 32.625C20.65 32.625 26.5 26.775 26.5 19.625H23.25C23.25 24.9875 18.8625 29.375 13.5 29.375C8.1375 29.375 3.75 24.9875 3.75 19.625C3.75 14.2625 8.1375 9.875 13.5 9.875V16.375L21.625 8.25L13.5 0.125V6.625C6.35 6.625 0.5 12.475 0.5 19.625ZM11.6259 24.5H10.25V19.1965L8.60754 19.7059V18.5872L11.4783 17.5588H11.6259V24.5ZM18.5432 21.634C18.5432 22.5925 18.3449 23.3257 17.9481 23.8335C17.5514 24.3413 16.9706 24.5952 16.2057 24.5952C15.4503 24.5952 14.8727 24.3461 14.4728 23.8478C14.0729 23.3495 13.8682 22.6354 13.8586 21.7054V20.4296C13.8586 19.4615 14.0594 18.7268 14.4609 18.2253C14.8624 17.7239 15.4408 17.4731 16.1962 17.4731C16.9515 17.4731 17.5292 17.7215 17.9291 18.2182C18.329 18.7149 18.5337 19.4282 18.5432 20.3582V21.634ZM17.1674 20.2344C17.1674 19.6599 17.0888 19.2418 16.9317 18.9799C16.7746 18.7181 16.5294 18.5872 16.1962 18.5872C15.8724 18.5872 15.6336 18.7117 15.4797 18.9609C15.3257 19.21 15.244 19.5996 15.2345 20.1296V21.8149C15.2345 22.3799 15.3115 22.7996 15.4654 23.0742C15.6193 23.3487 15.8661 23.486 16.2057 23.486C16.5421 23.486 16.7849 23.3542 16.9341 23.0908C17.0833 22.8274 17.161 22.4243 17.1674 21.8816V20.2344Z"
        fill="white" />
</svg>